<svg xmlns="http://www.w3.org/2000/svg" width="25.765" height="24.14" viewBox="0 0 25.765 24.14">
    <path d="M18.311 25.084h3.943a.266.266 0 0 0 .263-.263V14.569a1.053 1.053 0 0 1 1.051-1.051h1.924L14.649 4.125 3.771 13.517h1.922a1.052 1.052 0 0 1 1.051 1.051v10.253a.267.267 0 0 0 .263.263h3.943v-6.572a1.316 1.316 0 0 1 1.315-1.312H17a1.316 1.316 0 0 1 1.314 1.314zm3.943 1.577h-4.469a1.052 1.052 0 0 1-1.051-1.051v-6.469a.366.366 0 0 0-.366-.366h-3.474a.366.366 0 0 0-.366.366v6.469a1.052 1.052 0 0 1-1.051 1.051h-4.47a1.841 1.841 0 0 1-1.84-1.84v-9.726h-2.03a1.378 1.378 0 0 1-1.263-.757 1.307 1.307 0 0 1 .326-1.545l11.38-9.861a1.549 1.549 0 0 1 1.039-.411 1.59 1.59 0 0 1 1.091.437l11.35 9.83a1.306 1.306 0 0 1 .324 1.545 1.379 1.379 0 0 1-1.264.757h-2.03v9.726a1.84 1.84 0 0 1-1.836 1.845z" transform="translate(-1.749 -2.521)" style="fill:#b8244f"/>
</svg>
