<svg xmlns="http://www.w3.org/2000/svg" width="28.15" height="23.646" viewBox="0 0 28.15 23.646">
    <path d="M11.571 4.689c-2.558 0-3.1 1.991-3.1 3.659a3.417 3.417 0 0 0 3.1 3.659 3.417 3.417 0 0 0 3.1-3.659c-.004-1.668-.542-3.659-3.1-3.659zm0 9.008a5.1 5.1 0 0 1-4.786-5.349C6.785 5 8.575 3 11.571 3s4.785 2 4.785 5.348a5.1 5.1 0 0 1-4.785 5.352zm10.7-6.756c-1.588 0-2.393.947-2.393 2.815a2.633 2.633 0 0 0 2.393 2.815 2.633 2.633 0 0 0 2.389-2.815c0-1.868-.805-2.815-2.392-2.815zm0 7.319a4.313 4.313 0 0 1-4.082-4.5c0-2.778 1.564-4.5 4.082-4.5s4.082 1.726 4.082 4.5a4.313 4.313 0 0 1-4.085 4.5zm5.2 9.008a1 1 0 0 0 .989-1.007 5.163 5.163 0 0 0-5.129-5.186h-2.094a4.975 4.975 0 0 0-2.076.465 7.01 7.01 0 0 1 1.982 4.882v.846zm-8.019.633v-1.479a5.354 5.354 0 0 0-5.347-5.347H9.037a5.354 5.354 0 0 0-5.348 5.347V23.9a1.057 1.057 0 0 0 1.055 1.056H18.4a1.057 1.057 0 0 0 1.053-1.056zm3.879-8.515a6.853 6.853 0 0 1 6.818 6.875 2.689 2.689 0 0 1-2.678 2.7H20.93a2.747 2.747 0 0 1-2.53 1.685H4.744A2.747 2.747 0 0 1 2 23.9v-1.478a7.044 7.044 0 0 1 7.037-7.036h5.068a6.981 6.981 0 0 1 3.624 1.014 6.679 6.679 0 0 1 3.507-1.016z" transform="translate(-2 -3)" style="fill:#b8244f"/>
</svg>
