<svg xmlns="http://www.w3.org/2000/svg" width="29.85" height="17.917" viewBox="0 0 29.85 17.917">
    <path d="M.746 75.834A.746.746 0 1 0 0 75.087a.748.748 0 0 0 .746.747zm28.727-8.944-5.293.01-2.388-2.327a2.219 2.219 0 0 0-1.581-.658H15.5a2.216 2.216 0 0 0-1.32.466 2.245 2.245 0 0 0-1.366-.48h-3.24a2.238 2.238 0 0 0-1.581.658l-2.332 2.33H.373a.374.374 0 0 0-.373.373v.746a.374.374 0 0 0 .373.373h2.612v8.949H.373A.374.374 0 0 0 0 77.7v.746a.374.374 0 0 0 .373.373h2.612a1.487 1.487 0 0 0 1.488-1.478H6.02l3.8 3.637a3.741 3.741 0 0 0 4.71-.009l.336.289a2.488 2.488 0 0 0 3.494-.358l1.021-1.254a2.24 2.24 0 0 0 2.8-.56l.443-.546a2.236 2.236 0 0 0 .49-1.2h2.266a1.49 1.49 0 0 0 1.488 1.478h2.612a.374.374 0 0 0 .373-.373V77.7a.374.374 0 0 0-.373-.373h-2.614v-8.94l2.612-.009a.374.374 0 0 0 .373-.373v-.746a.378.378 0 0 0-.378-.373zM21.461 77.6l-.443.546a.745.745 0 0 1-1.049.107l-.83-.672-1.939 2.375a.986.986 0 0 1-1.371.159L14.405 78.9l-.485.6a2.239 2.239 0 0 1-3.106.368l-4.192-4.02H4.477v-7.471h1.8l2.765-2.765a.749.749 0 0 1 .527-.219h3.241c.042.1.014.033.051.135l-2.751 2.527a3.2 3.2 0 1 0 4.323 4.715l1.067-.97 5.857 4.752a.752.752 0 0 1 .104 1.048zm3.908-1.749H22.7a2.365 2.365 0 0 0-.41-.457l-5.685-4.617 1.324-1.217a.746.746 0 1 0-1.007-1.1l-3.5 3.208a1.762 1.762 0 0 1-2.411-.1 1.709 1.709 0 0 1 .1-2.411l3.877-3.557a.75.75 0 0 1 .5-.2H20.2a.745.745 0 0 1 .532.224l2.831 2.756h1.8zm3.731-1.5a.746.746 0 1 0 .746.746.748.748 0 0 0-.746-.751z" transform="translate(0 -63.9)" style="fill:#b8244f"/>
</svg>
