<svg xmlns="http://www.w3.org/2000/svg" width="23.923" height="23.923" viewBox="0 0 23.923 23.923">
    <path d="M23.608 12.826 21.346 8.3a1.5 1.5 0 0 0-1.337-.827H5.981v-.745A3.734 3.734 0 0 1 9.127 3.05a2.239 2.239 0 0 0 2.087 1.435H14.2A2.243 2.243 0 1 0 14.2 0h-2.99a2.235 2.235 0 0 0-2.121 1.559 5.223 5.223 0 0 0-4.6 5.17v.748h-.574a1.5 1.5 0 0 0-1.338.823L.316 12.826A2.985 2.985 0 0 0 0 14.163v2.284a1.5 1.5 0 0 0 1.5 1.5h7.471v4.486H6.355a.374.374 0 0 0-.374.374v.748a.374.374 0 0 0 .374.374h11.214a.374.374 0 0 0 .374-.374V22.8a.374.374 0 0 0-.374-.374h-2.617v-4.483h7.476a1.5 1.5 0 0 0 1.5-1.5v-2.28a2.985 2.985 0 0 0-.32-1.337zM11.214 1.5H14.2a.748.748 0 1 1 0 1.5h-2.99a.748.748 0 1 1 0-1.5zm-7.3 7.476h16.095l2.243 4.486H1.672zm9.542 13.457h-2.99v-4.49h2.99zm8.971-5.981H1.5v-1.5h20.928z" style="fill:#b8244f"/>
</svg>
