<svg xmlns="http://www.w3.org/2000/svg" width="28.372" height="23.583" viewBox="0 0 28.372 23.583">
    <path d="M27.743 5.463 24.754.691A1.474 1.474 0 0 0 23.506 0H4.9a1.474 1.474 0 0 0-1.251.691L.66 5.463a4.179 4.179 0 0 0 1.75 6.025v10.473a1.553 1.553 0 0 0 1.474 1.621h20.635a1.553 1.553 0 0 0 1.474-1.621V11.487a4.179 4.179 0 0 0 1.75-6.024zm-3.224 16.5c0 .092-.037.143-.009.147l-20.571.014a.206.206 0 0 1-.055-.161v-5.75h20.635zM3.884 14.739v-2.948H4a4.548 4.548 0 0 0 3.4-1.525 4.552 4.552 0 0 0 6.8 0 4.552 4.552 0 0 0 6.8 0 4.566 4.566 0 0 0 3.4 1.525h.115v2.948zm22.763-5.826a2.334 2.334 0 0 1-1.81 1.373 3.362 3.362 0 0 1-.433.028 3.056 3.056 0 0 1-2.3-1.036L21 8.061l-1.1 1.225a3.077 3.077 0 0 1-4.606 0L14.2 8.061l-1.1 1.225a3.077 3.077 0 0 1-4.606 0L7.4 8.061 6.3 9.286A3.056 3.056 0 0 1 4 10.322a3.362 3.362 0 0 1-.433-.028 2.334 2.334 0 0 1-1.81-1.373 2.81 2.81 0 0 1 .152-2.667L4.9 1.474h18.606L26.5 6.246a2.81 2.81 0 0 1 .147 2.667z" transform="translate(-.016)" style="fill:#b8244f"/>
</svg>
