<svg data-name="Group 5585" xmlns="http://www.w3.org/2000/svg" width="23.202" height="20.525" viewBox="0 0 23.202 20.525">
    <path data-name="Path 14481" d="M27.864 30.816h-5.8v-8.477A1.34 1.34 0 0 0 20.725 21h-6.247a1.34 1.34 0 0 0-1.339 1.339v5.8h-5.8A1.34 1.34 0 0 0 6 29.478v5.354a1.34 1.34 0 0 0 1.339 1.339h20.525a1.34 1.34 0 0 0 1.336-1.339v-2.677a1.34 1.34 0 0 0-1.336-1.339zm-13.832-8.477a.447.447 0 0 1 .446-.446h6.247a.447.447 0 0 1 .446.446v11.155h-7.139V22.339zm-.892 12.94h-5.8a.447.447 0 0 1-.446-.446v-.446h5.354v-.892H6.892v-4.017a.447.447 0 0 1 .446-.446h5.8zm.892 0v-.892h7.139v.892zm13.832 0h-5.8v-3.57h5.8a.447.447 0 0 1 .446.446v1.339h-5.354v.892h5.354v.446a.447.447 0 0 1-.446.446z" transform="translate(-6 -15.646)" style="fill:#87849a"/>
    <path data-name="Path 14482" d="M31.677 36.57h-.892V33H29v.892h.892v2.678H29v.892h2.677z" transform="translate(-18.737 -22.291)" style="fill:#87849a"/>
    <path data-name="Path 14483" d="m29.586 9.228.385.813a.4.4 0 0 0 .3.224l.861.13a.414.414 0 0 1 .218.7l-.623.633a.419.419 0 0 0-.113.362l.147.894a.4.4 0 0 1-.57.431l-.77-.422a.377.377 0 0 0-.365 0l-.77.422a.4.4 0 0 1-.57-.431l.147-.894a.421.421 0 0 0-.113-.362l-.623-.633a.414.414 0 0 1 .218-.7l.861-.13a.394.394 0 0 0 .3-.224l.385-.813a.385.385 0 0 1 .695 0z" transform="translate(-17.632 -9)" style="fill:#87849a"/>
    <path data-name="Path 14484" d="M47.339 35a1.339 1.339 0 1 0 1.339 1.339A1.339 1.339 0 0 0 47.339 35z" transform="translate(-28.152 -23.399)" style="fill:#87849a"/>
    <path data-name="Path 14485" d="M13.339 29a1.339 1.339 0 1 0 1.339 1.339A1.339 1.339 0 0 0 13.339 29z" transform="translate(-9.323 -20.076)" style="fill:#87849a"/>
</svg>
