<svg xmlns="http://www.w3.org/2000/svg" width="23.923" height="18.441" viewBox="0 0 23.923 18.441">
    <path d="M8.476 6a.96.96 0 0 0-1 1v1.5H2a1.014 1.014 0 0 0-.716.28A1.014 1.014 0 0 0 1 9.489v13.955a1.014 1.014 0 0 0 .28.716 1.014 1.014 0 0 0 .716.28h21.93a.96.96 0 0 0 1-1V9.489a.96.96 0 0 0-1-1h-5.482V7a.96.96 0 0 0-1-1zm0 1h8.971v1.5a.96.96 0 0 0 1 1h5.482v13.944H2V9.489h5.479a.96.96 0 0 0 1-1zm4.486 1.99a6.978 6.978 0 1 0 6.978 6.978 6.974 6.974 0 0 0-6.978-6.978zm0 1a5.981 5.981 0 1 1-5.981 5.981 5.958 5.958 0 0 1 5.981-5.984zm0 .5a5.482 5.482 0 1 0 5.482 5.482 5.5 5.5 0 0 0-5.482-5.486zm8.473 0a1.5 1.5 0 1 0 1.5 1.5 1.5 1.5 0 0 0-1.5-1.504zm-8.473 1a4.486 4.486 0 1 1-4.486 4.486 4.5 4.5 0 0 1 4.486-4.494zm8.473 0a.5.5 0 1 1-.5.5.492.492 0 0 1 .5-.508z" transform="translate(-1 -6)" style="fill:#87849a"/>
</svg>
