<svg xmlns="http://www.w3.org/2000/svg" width="222.417" height="68.686" viewBox="0 0 222.417 68.686">
    <g data-name="Layer 2">
        <g data-name="Layer 1">
            <path data-name="Path 14061" d="M17.019 8.991a27.33 27.33 0 0 1 28.649 0 2.035 2.035 0 0 0 3-2.033 1.952 1.952 0 0 0-.906-1.429 31.366 31.366 0 0 0-32.835 0A1.892 1.892 0 0 0 14 6.958a2.043 2.043 0 0 0 3.019 2.033" transform="translate(.119 .006)" style="fill:#f52b60"/>
            <path data-name="Path 14062" d="M4.025 32.238A27.34 27.34 0 0 1 8.05 17.919a2.029 2.029 0 0 0-1.791-3.009h-.221a1.892 1.892 0 0 0-1.429.906 31.366 31.366 0 0 0 0 32.835 1.892 1.892 0 0 0 1.429.906 2.073 2.073 0 0 0 1.7-.594 2.013 2.013 0 0 0 .332-2.4 27.35 27.35 0 0 1-4.045-14.325" transform="translate(.031 .094)" style="fill:#f52b60"/>
            <path data-name="Path 14063" d="M48.083 55.634a2.013 2.013 0 0 0-2.4-.332 27.3 27.3 0 0 1-28.649 0 2.013 2.013 0 0 0-2.415.342 2.083 2.083 0 0 0-.619 1.69 1.892 1.892 0 0 0 .906 1.429c.714.443 1.459.845 2.214 1.228a4.327 4.327 0 0 1 2.335 3.864v3.019a1.489 1.489 0 0 0 2.565 1.006l3.019-3.22a4.377 4.377 0 0 1 3.592-1.36c.9.081 1.781.131 2.677.131a31.355 31.355 0 0 0 16.422-4.638 1.922 1.922 0 0 0 .906-1.429 2.013 2.013 0 0 0-.594-1.7" transform="translate(.119 .345)" style="fill:#f52b60"/>
            <path data-name="Path 14064" d="M26.412 12.942a2.063 2.063 0 0 0-1.218-.392 2.324 2.324 0 0 0-.694.111 20.719 20.719 0 0 0-12.76 12.76 2.093 2.093 0 0 0 .282 1.912 2.013 2.013 0 0 0 1.68.875 2.153 2.153 0 0 0 2.013-1.469 16.493 16.493 0 0 1 10.174-10.154 2.013 2.013 0 0 0 1.389-1.872 2.093 2.093 0 0 0-.865-1.771" transform="translate(.104 .079)" style="fill:#f52b60"/>
            <path data-name="Path 14065" d="M26.412 51.455a2.013 2.013 0 0 1-1.912.282 20.689 20.689 0 0 1-12.76-12.719 2.093 2.093 0 0 1 .282-1.912 2.013 2.013 0 0 1 1.68-.865 2.143 2.143 0 0 1 2.013 1.459 16.443 16.443 0 0 0 10.174 10.112 2.013 2.013 0 0 1 1.389 1.882 2.073 2.073 0 0 1-.865 1.761" transform="translate(.104 .227)" style="fill:#f52b60"/>
            <path data-name="Path 14066" d="M44.43 7.2a2.013 2.013 0 1 0 2.013-2.01A2.013 2.013 0 0 0 44.43 7.2" transform="translate(.31 .033)" style="fill:#b8244f"/>
            <path data-name="Path 14067" d="M44.43 57.063a2.013 2.013 0 1 0 2.013-2.013 2.013 2.013 0 0 0-2.013 2.013" transform="translate(.31 .345)" style="fill:#b8244f"/>
            <path data-name="Path 14068" d="M4.28 47.353a2.013 2.013 0 1 0 2.013-2.013 2.013 2.013 0 0 0-2.013 2.013" transform="translate(.058 .284)" style="fill:#b8244f"/>
            <path data-name="Path 14069" d="M12.575 11.483a2.013 2.013 0 1 1-2.012-2.013 2.013 2.013 0 0 1 2.013 2.013" transform="translate(.085 .059)" style="fill:#493e6f"/>
            <path data-name="Path 14070" d="M12.575 52.873a2.013 2.013 0 1 1-2.013-2.013 2.013 2.013 0 0 1 2.013 2.013" transform="translate(.085 .319)" style="fill:#493e6f"/>
            <path data-name="Path 14071" d="M34.282 38.6a4.025 4.025 0 0 0 1.439 2.707 4.085 4.085 0 0 0 3.069 1.358 4.85 4.85 0 0 0 3.431-1.308 4.347 4.347 0 0 0 1.167-3.019c0-2.214-1.218-3.7-3.743-4.508l-3.019-.946a6.521 6.521 0 0 1-4.961-6.46 6.521 6.521 0 0 1 2.013-5.092A7.7 7.7 0 0 1 38.83 19a6.933 6.933 0 0 1 4.87 1.711 6.108 6.108 0 0 1 2.485 4.508v.775h-3.561V25.4c0-1.8-1.8-3.019-3.794-3.019a3.623 3.623 0 0 0-3.6 3.522c-.141 1.852 1.006 3.16 3.291 3.924l3.019 1.006c3.431 1.177 5.273 3.482 5.5 6.863a7.285 7.285 0 0 1-2.435 6.038 8.181 8.181 0 0 1-6.229 2.294 7.929 7.929 0 0 1-5.454-2.616 8.111 8.111 0 0 1-2.174-5.685h3.572z" transform="translate(.224 .119)" style="fill:#493e6f"/>
            <path data-name="Path 14072" d="M76.162 36.933a12.991 12.991 0 0 1-4.87 6.591 13.293 13.293 0 0 1-7.617 2.485 12.79 12.79 0 0 1-9.308-3.864 13.082 13.082 0 0 1-4.156-9.429 13.081 13.081 0 0 1 4.025-9.932 12.568 12.568 0 0 1 9.972-3.874 13.243 13.243 0 0 1 8.936 4.267 12.307 12.307 0 0 1 3.656 8.664v1.852H53.732a9.439 9.439 0 0 0 3.311 6.44 9.882 9.882 0 0 0 6.812 2.485 9.107 9.107 0 0 0 8.7-5.645zm-2.717-6.4a10.035 10.035 0 0 0-19.713 0z" transform="translate(.346 .118)" style="fill:#493e6f"/>
            <path data-name="Path 14073" d="M93.828 45.37h-3.562L79.7 19.66h3.613l8.755 21.2 8.7-21.2h3.794z" transform="translate(.531 .123)" style="fill:#493e6f"/>
            <path data-name="Path 14074" d="M133.252 36.933a12.991 12.991 0 0 1-4.87 6.591 13.293 13.293 0 0 1-7.617 2.485 12.79 12.79 0 0 1-9.338-3.864 13.082 13.082 0 0 1-4.156-9.429 13.082 13.082 0 0 1 4.025-9.932 12.578 12.578 0 0 1 9.972-3.874 13.242 13.242 0 0 1 8.926 4.236 12.307 12.307 0 0 1 3.653 8.664v1.882H110.7a9.439 9.439 0 0 0 3.341 6.44 9.881 9.881 0 0 0 6.812 2.485 9.107 9.107 0 0 0 8.7-5.645zm-2.747-6.4a10.035 10.035 0 0 0-19.713 0z" transform="translate(.704 .118)" style="fill:#493e6f"/>
            <path data-name="Path 14075" d="M159.462 46.068h-3.482V30.35a7.648 7.648 0 0 0-2.385-5.595 7.467 7.467 0 0 0-5.524-2.345 8.05 8.05 0 0 0-7.939 7.939v15.719h-3.472V30.713a11.33 11.33 0 0 1 3.25-8.3 11.592 11.592 0 0 1 16.282 0 11.371 11.371 0 0 1 3.25 8.3z" transform="translate(.888 .12)" style="fill:#f52b60"/>
            <path data-name="Path 14076" d="M185.632 34.322a11.442 11.442 0 0 1-3.25 8.342A10.777 10.777 0 0 1 174.271 46a10.978 10.978 0 0 1-8.171-3.341 11.613 11.613 0 0 1-3.2-8.342V19.66h3.472v15.094a7.608 7.608 0 0 0 2.345 5.595 7.728 7.728 0 0 0 5.555 2.294 8.05 8.05 0 0 0 7.849-7.919V19.63h3.472z" transform="translate(1.053 .123)" style="fill:#493e6f"/>
            <path data-name="Path 14077" d="M215.282 36.933a12.991 12.991 0 0 1-4.87 6.591 13.343 13.343 0 0 1-7.628 2.485 12.81 12.81 0 0 1-9.338-3.864 12.991 12.991 0 0 1-4.146-9.429 13.082 13.082 0 0 1 4.025-9.932 12.588 12.588 0 0 1 9.975-3.874 13.253 13.253 0 0 1 8.936 4.236 12.307 12.307 0 0 1 3.653 8.664v1.882h-23.067a9.4 9.4 0 0 0 3.291 6.44 9.881 9.881 0 0 0 6.812 2.485 9.127 9.127 0 0 0 8.7-5.645zm-2.747-6.4a10.036 10.036 0 0 0-19.733 0z" transform="translate(1.218 .118)" style="fill:#493e6f"/>
            <path data-name="Path 14078" d="M147.855 17.509a8.755 8.755 0 1 1 8.755-8.755 8.755 8.755 0 0 1-8.755 8.755m0-13.8a5.031 5.031 0 1 0 5.031 5.031 5.031 5.031 0 0 0-5.031-5.031" transform="translate(.904)" style="fill:#f52b60"/>
            <path data-name="Path 14079" d="M221.033 43.306a2.616 2.616 0 1 0-.763 1.856 2.626 2.626 0 0 0 .763-1.856" transform="translate(1.385 .255)" style="fill:#493e6f"/>
        </g>
    </g>
</svg>
