<svg data-name="Group 5043" xmlns="http://www.w3.org/2000/svg" width="172.166" height="28.906" viewBox="0 0 172.166 28.906">
    <defs>
        <clipPath id="rnidwmeeha">
            <path data-name="Rectangle 3840" style="fill:none" d="M0 0h172.166v28.906H0z"/>
        </clipPath>
    </defs>
    <g data-name="Group 5042" style="clip-path:url(#rnidwmeeha)">
        <path data-name="Path 14137" d="M189.531 11.787A1.019 1.019 0 0 1 189.9 11a1.275 1.275 0 0 1 .884-.329 1.3 1.3 0 0 1 .885.321 1.014 1.014 0 0 1 .366.791.986.986 0 0 1-.366.764 1.375 1.375 0 0 1-1.769 0 .985.985 0 0 1-.366-.764m2.272 8.756h-2.028v-6.6h2.022z" transform="translate(-124.969 -7.476)" style="fill:#b8244f"/>
        <path data-name="Path 14138" d="M206.773 21.444v1.8a3.56 3.56 0 0 0-.61-.054 2.149 2.149 0 0 0-1.4.436 1.741 1.741 0 0 0-.534 1.428v3.017H202.2v-6.6h1.967v.979a2.191 2.191 0 0 1 2.134-1.032q.168 0 .473.027" transform="translate(-133.321 -15.001)" style="fill:#b8244f"/>
        <path data-name="Path 14139" d="M221.144 15.016v1.971h1.509v1.583h-1.509v2.762a.722.722 0 0 0 .213.59 1.056 1.056 0 0 0 .671.174 2.73 2.73 0 0 0 .625-.054v1.475a3.4 3.4 0 0 1-1.144.161 2.6 2.6 0 0 1-1.738-.543 1.857 1.857 0 0 1-.64-1.5V18.57h-1.357v-1.583h.382a1.188 1.188 0 0 0 .861-.288 1.007 1.007 0 0 0 .3-.757v-.925z" transform="translate(-143.591 -10.517)" style="fill:#b8244f"/>
        <path data-name="Path 14140" d="M241.694 28.193a3.332 3.332 0 0 1-.061-.711 1.744 1.744 0 0 1-.861.664 3.332 3.332 0 0 1-1.212.221 2.862 2.862 0 0 1-2.088-.744 2.487 2.487 0 0 1-.763-1.857V21.6h2.028v3.8a1.245 1.245 0 0 0 1.372 1.328 1.46 1.46 0 0 0 1.037-.355 1.23 1.23 0 0 0 .381-.945V21.6h2.028V27a8.8 8.8 0 0 0 .077 1.193z" transform="translate(-156.075 -15.126)" style="fill:#b8244f"/>
        <path data-name="Path 14141" d="M261.462 25.925a1.659 1.659 0 0 1 .625-1.354 3.171 3.171 0 0 1 1.616-.643l1.845-.241q.564-.067.564-.469a.735.735 0 0 0-.328-.617 1.563 1.563 0 0 0-.938-.241 1.541 1.541 0 0 0-1.013.309 1.1 1.1 0 0 0-.42.764l-1.8-.335a2.263 2.263 0 0 1 .961-1.515 3.6 3.6 0 0 1 2.257-.657 3.646 3.646 0 0 1 2.47.7 2.3 2.3 0 0 1 .793 1.8v3.245a5.331 5.331 0 0 0 .092 1.046h-1.86a3.265 3.265 0 0 1-.077-.791 2.558 2.558 0 0 1-2.211.979 2.825 2.825 0 0 1-1.868-.59 1.766 1.766 0 0 1-.709-1.395m3 .657a1.89 1.89 0 0 0 1.182-.355 1.384 1.384 0 0 0 .465-1.173v-.3l-1.693.228q-.93.12-.93.831a.688.688 0 0 0 .259.543 1.069 1.069 0 0 0 .717.221" transform="translate(-172.397 -14.655)" style="fill:#b8244f"/>
        <path data-name="Rectangle 3839" transform="translate(97.619 3.359)" style="fill:#b8244f" d="M0 0h2.028v9.708H0z"/>
        <path data-name="Path 14142" d="M316.438 21.389h-6.77v-9.507h6.77v1.743h-4.666V15.8H316v1.649h-4.224v2.2h4.666z" transform="translate(-204.182 -8.322)" style="fill:#b8244f"/>
        <path data-name="Path 14143" d="m339.651 21.6-2.912 6.6h-2.028l-3.065-6.6h2.226l1.86 4.425 1.784-4.425z" transform="translate(-218.673 -15.126)" style="fill:#b8244f"/>
        <path data-name="Path 14144" d="m361.681 25.389 1.692.442a2.875 2.875 0 0 1-1.2 1.5 3.942 3.942 0 0 1-2.219.59 4.1 4.1 0 0 1-2.745-.959 3.442 3.442 0 0 1-.03-5.069 3.782 3.782 0 0 1 2.592-.972 3.85 3.85 0 0 1 2.721.912 3.253 3.253 0 0 1 .984 2.508q0 .107-.008.241t-.007.214l-.015.094h-5.367a1.4 1.4 0 0 0 .579 1.073 2.065 2.065 0 0 0 1.312.429 1.652 1.652 0 0 0 1.708-1.006m-3.553-1.716h3.355a1.3 1.3 0 0 0-.45-.925 1.783 1.783 0 0 0-1.227-.376 1.734 1.734 0 0 0-1.189.4 1.292 1.292 0 0 0-.488.9" transform="translate(-234.787 -14.656)" style="fill:#b8244f"/>
        <path data-name="Path 14145" d="M384.165 23.99v3.795h-2.028v-6.6h1.963v.818a2.019 2.019 0 0 1 .915-.738 3.149 3.149 0 0 1 1.251-.255 2.655 2.655 0 0 1 2.02.731 2.625 2.625 0 0 1 .694 1.884v4.157h-2.028v-3.846a1.327 1.327 0 0 0-.343-.952 1.609 1.609 0 0 0-2.066.027 1.342 1.342 0 0 0-.381.979" transform="translate(-251.965 -14.718)" style="fill:#b8244f"/>
        <path data-name="Path 14146" d="M408.738 15.016v1.971h1.51v1.583h-1.51v2.762a.722.722 0 0 0 .214.59 1.056 1.056 0 0 0 .671.174 2.73 2.73 0 0 0 .625-.054v1.475a3.4 3.4 0 0 1-1.144.161 2.6 2.6 0 0 1-1.738-.543 1.857 1.857 0 0 1-.64-1.5V18.57h-1.357v-1.583h.382a1.187 1.187 0 0 0 .861-.288 1.006 1.006 0 0 0 .3-.757v-.925z" transform="translate(-267.282 -10.517)" style="fill:#b8244f"/>
        <path data-name="Path 14147" d="M163.957 61.345a5.848 5.848 0 0 1-3.934-1.368 4.781 4.781 0 0 1 .023-7.161 5.793 5.793 0 0 1 3.881-1.381 5.494 5.494 0 0 1 3.331.925 4.141 4.141 0 0 1 1.624 2.226l-1.982.55a2.575 2.575 0 0 0-.961-1.361 3.254 3.254 0 0 0-2.013-.556 3.526 3.526 0 0 0-2.325.831 3.21 3.21 0 0 0-.015 4.64 3.516 3.516 0 0 0 2.371.845 3.245 3.245 0 0 0 2.021-.577 2.819 2.819 0 0 0 1.014-1.368l1.967.523a3.994 3.994 0 0 1-.542 1.127 4.864 4.864 0 0 1-.968 1.032 4.633 4.633 0 0 1-1.5.778 6.411 6.411 0 0 1-1.99.3" transform="translate(-104.457 -36.026)" style="fill:#340000"/>
        <path data-name="Path 14148" d="M192.4 62.14a4.485 4.485 0 0 1 5.627 0 3.366 3.366 0 0 1 0 5.015 4.485 4.485 0 0 1-5.627 0 3.366 3.366 0 0 1 0-5.015m1.464 3.889a2.083 2.083 0 0 0 2.7 0 1.992 1.992 0 0 0 0-2.762 2.083 2.083 0 0 0-2.7 0 1.992 1.992 0 0 0 0 2.762" transform="translate(-126.119 -42.83)" style="fill:#340000"/>
        <path data-name="Path 14149" d="M220.744 64.215v3.795h-2.028v-6.6h1.967v.818a2.018 2.018 0 0 1 .915-.738 3.145 3.145 0 0 1 1.25-.255 2.654 2.654 0 0 1 2.02.731 2.624 2.624 0 0 1 .694 1.884v4.16h-2.028v-3.849a1.328 1.328 0 0 0-.343-.952 1.608 1.608 0 0 0-2.066.027 1.342 1.342 0 0 0-.381.979" transform="translate(-144.212 -42.893)" style="fill:#340000"/>
        <path data-name="Path 14150" d="M246.292 52.69a1.3 1.3 0 0 0-.74.208.782.782 0 0 0-.313.7v.724h1.693v1.529h-1.692v5.069h-2.04v-5.065h-1.251v-1.529h1.251v-.751a2.291 2.291 0 0 1 .74-1.784 3.447 3.447 0 0 1 3-.537v1.5a2.607 2.607 0 0 0-.64-.067" transform="translate(-159.529 -35.806)" style="fill:#340000"/>
        <path data-name="Path 14151" d="m263.523 65.613 1.692.443a2.875 2.875 0 0 1-1.2 1.5 3.936 3.936 0 0 1-2.218.59 4.1 4.1 0 0 1-2.745-.959 3.442 3.442 0 0 1-.03-5.069 3.783 3.783 0 0 1 2.592-.972 3.849 3.849 0 0 1 2.721.912 3.25 3.25 0 0 1 .984 2.507q0 .107-.008.241a3.937 3.937 0 0 0-.007.214l-.015.094h-5.367a1.4 1.4 0 0 0 .579 1.073 2.063 2.063 0 0 0 1.311.429 1.652 1.652 0 0 0 1.707-1.006m-3.549-1.71h3.354a1.294 1.294 0 0 0-.45-.925 1.783 1.783 0 0 0-1.227-.376 1.734 1.734 0 0 0-1.189.4 1.291 1.291 0 0 0-.488.9" transform="translate(-170.066 -42.83)" style="fill:#340000"/>
        <path data-name="Path 14152" d="M288.552 61.668v1.8a3.524 3.524 0 0 0-.61-.054 2.147 2.147 0 0 0-1.4.436 1.741 1.741 0 0 0-.534 1.428v3.017h-2.028v-6.6h1.967v.979a2.191 2.191 0 0 1 2.134-1.032q.168 0 .473.027" transform="translate(-187.242 -43.175)" style="fill:#340000"/>
        <path data-name="Path 14153" d="m304.971 65.613 1.692.443a2.875 2.875 0 0 1-1.2 1.5 3.937 3.937 0 0 1-2.219.59 4.094 4.094 0 0 1-2.745-.959 3.442 3.442 0 0 1-.03-5.069 3.782 3.782 0 0 1 2.592-.972 3.849 3.849 0 0 1 2.721.912 3.251 3.251 0 0 1 .984 2.507q0 .107-.008.241a4.12 4.12 0 0 0-.008.214l-.015.094h-5.367a1.4 1.4 0 0 0 .579 1.073 2.064 2.064 0 0 0 1.312.429 1.652 1.652 0 0 0 1.708-1.006m-3.549-1.71h3.355a1.3 1.3 0 0 0-.45-.925 1.784 1.784 0 0 0-1.223-.375 1.735 1.735 0 0 0-1.189.4 1.292 1.292 0 0 0-.488.9" transform="translate(-197.395 -42.83)" style="fill:#340000"/>
        <path data-name="Path 14154" d="M327.454 64.215v3.795h-2.028v-6.6h1.967v.818a2.019 2.019 0 0 1 .915-.738 3.149 3.149 0 0 1 1.251-.255 2.655 2.655 0 0 1 2.02.731 2.625 2.625 0 0 1 .694 1.884v4.16h-2.028v-3.849a1.327 1.327 0 0 0-.343-.952 1.609 1.609 0 0 0-2.066.027 1.342 1.342 0 0 0-.381.979" transform="translate(-214.572 -42.893)" style="fill:#340000"/>
        <path data-name="Path 14155" d="M353.487 62.8a1.948 1.948 0 0 0-1.357.5 1.943 1.943 0 0 0 .007 2.715 1.962 1.962 0 0 0 1.365.5 1.827 1.827 0 0 0 1.144-.329 1.638 1.638 0 0 0 .579-.784l1.784.523a3 3 0 0 1-1.189 1.569 3.875 3.875 0 0 1-2.318.657 4.106 4.106 0 0 1-2.813-1 3.343 3.343 0 0 1-.015-5.008 4.026 4.026 0 0 1 2.768-.992 3.958 3.958 0 0 1 2.348.65 2.881 2.881 0 0 1 1.174 1.576l-1.815.536a1.566 1.566 0 0 0-1.662-1.113" transform="translate(-230.48 -42.83)" style="fill:#340000"/>
        <path data-name="Path 14156" d="m379.186 65.613 1.692.443a2.875 2.875 0 0 1-1.2 1.5 3.937 3.937 0 0 1-2.219.59 4.1 4.1 0 0 1-2.745-.959 3.442 3.442 0 0 1-.03-5.069 3.782 3.782 0 0 1 2.592-.972 3.849 3.849 0 0 1 2.724.914 3.251 3.251 0 0 1 .984 2.507q0 .107-.008.241t-.007.214l-.015.094h-5.367a1.4 1.4 0 0 0 .579 1.073 2.064 2.064 0 0 0 1.312.429 1.652 1.652 0 0 0 1.708-1.006m-3.553-1.712h3.355a1.3 1.3 0 0 0-.45-.925 1.784 1.784 0 0 0-1.227-.376 1.735 1.735 0 0 0-1.189.4 1.292 1.292 0 0 0-.488.9" transform="translate(-246.329 -42.83)" style="fill:#340000"/>
        <path data-name="Path 14157" d="m410.743 57.688-2-.054a2.494 2.494 0 0 1-.076-.6 2.638 2.638 0 0 1 .976-2.058 3.875 3.875 0 0 1 2.638-.851 3.925 3.925 0 0 1 2.592.811 2.5 2.5 0 0 1 .976 1.991 3.059 3.059 0 0 1-1.922 2.7l-1.906 1.019a1.886 1.886 0 0 0-.854.791h4.742v1.6h-7.319a3.891 3.891 0 0 1 2.333-3.714l1.631-.858q1.174-.617 1.174-1.5a1.1 1.1 0 0 0-.389-.845 1.6 1.6 0 0 0-1.105-.348 1.584 1.584 0 0 0-1.167.4 1.412 1.412 0 0 0-.4 1.046 1.585 1.585 0 0 0 .077.483" transform="translate(-269.409 -37.908)" style="fill:#b8244f"/>
        <path data-name="Path 14158" d="M432.943 58.679a5.063 5.063 0 0 1 .869-3.1 3.849 3.849 0 0 1 3.263-1.462 3.807 3.807 0 0 1 3.248 1.462 5.867 5.867 0 0 1 0 6.2 3.806 3.806 0 0 1-3.248 1.462 3.848 3.848 0 0 1-3.263-1.462 5.063 5.063 0 0 1-.869-3.1m2.1 0a3.769 3.769 0 0 0 .533 2.213 1.911 1.911 0 0 0 2.973 0 4.735 4.735 0 0 0 0-4.425 1.911 1.911 0 0 0-2.973 0 3.77 3.77 0 0 0-.533 2.213" transform="translate(-285.464 -37.907)" style="fill:#b8244f"/>
        <path data-name="Path 14159" d="m462.13 57.688-2-.054a2.494 2.494 0 0 1-.076-.6 2.638 2.638 0 0 1 .976-2.058 3.876 3.876 0 0 1 2.638-.851 3.925 3.925 0 0 1 2.592.811 2.5 2.5 0 0 1 .976 1.991 3.059 3.059 0 0 1-1.922 2.7l-1.906 1.019a1.885 1.885 0 0 0-.854.791h4.746v1.6h-7.32a3.89 3.89 0 0 1 2.333-3.714l1.631-.858q1.174-.617 1.174-1.5a1.1 1.1 0 0 0-.389-.845 1.6 1.6 0 0 0-1.105-.348 1.583 1.583 0 0 0-1.167.4 1.412 1.412 0 0 0-.4 1.046 1.587 1.587 0 0 0 .077.483" transform="translate(-303.291 -37.908)" style="fill:#b8244f"/>
        <path data-name="Path 14160" d="m486.077 57.688-2-.054a2.491 2.491 0 0 1-.076-.6 2.638 2.638 0 0 1 .976-2.058 3.875 3.875 0 0 1 2.638-.851 3.925 3.925 0 0 1 2.592.811 2.5 2.5 0 0 1 .976 1.991 3.059 3.059 0 0 1-1.922 2.7l-1.906 1.019a1.885 1.885 0 0 0-.854.791h4.742v1.6h-7.319a3.89 3.89 0 0 1 2.333-3.714l1.631-.858q1.174-.617 1.174-1.5a1.1 1.1 0 0 0-.389-.845 1.6 1.6 0 0 0-1.105-.348 1.584 1.584 0 0 0-1.167.4 1.412 1.412 0 0 0-.4 1.046 1.585 1.585 0 0 0 .077.483" transform="translate(-319.081 -37.908)" style="fill:#b8244f"/>
        <path data-name="Path 14161" d="M75.55 0a18.049 18.049 0 0 0-3.244.293 2057.54 2057.54 0 0 0-3.834 6.445 12.057 12.057 0 0 1 6.98-2.282A12.6 12.6 0 0 1 83.7 7.719l2.9-3.452A17.2 17.2 0 0 0 75.55 0m8.169 21.166a12.564 12.564 0 0 1-8.246 3.334c-5.7 0-11.286-4.355-11.286-10 0-.189.006-.376.018-.563l-3.695 6.255c2.556 5.1 8.411 8.71 15.12 8.71a16.173 16.173 0 0 0 10.97-4.2z" transform="translate(-39.898)" style="fill:#b8244f"/>
        <path data-name="Path 14162" d="M19.169 25.987 17.711 27.9v.005l-.531.7-1.452 1.9S0 3.871 0 3.985h6.239l9.713 16.526L19 25.707z" transform="translate(0 -2.791)" style="fill:#340000"/>
    </g>
</svg>
