<svg xmlns="http://www.w3.org/2000/svg" width="25.301" height="25.301" viewBox="0 0 25.301 25.301">
    <path d="M23 0H2.3A2.3 2.3 0 0 0 0 2.3V23a2.3 2.3 0 0 0 2.3 2.3H23a2.3 2.3 0 0 0 2.3-2.3V2.3A2.3 2.3 0 0 0 23 0zm-3.45 13.8H5.75a1.15 1.15 0 0 1-1.15-1.15 1.15 1.15 0 0 1 1.15-1.15h13.8a1.15 1.15 0 0 1 1.15 1.15 1.15 1.15 0 0 1-1.149 1.15zm0-5.75H5.75A1.15 1.15 0 0 1 4.6 6.9a1.15 1.15 0 0 1 1.15-1.15h13.8A1.15 1.15 0 0 1 20.7 6.9a1.15 1.15 0 0 1-1.149 1.15zm0 11.5H5.75A1.15 1.15 0 0 1 4.6 18.4a1.15 1.15 0 0 1 1.15-1.15h13.8a1.15 1.15 0 0 1 1.15 1.15 1.15 1.15 0 0 1-1.149 1.151z"/>
</svg>
