<svg xmlns="http://www.w3.org/2000/svg" width="29.039" height="26.805" viewBox="0 0 29.039 26.805">
    <path d="M5.584 0a1.117 1.117 0 1 0 0 2.234v2.65a3.625 3.625 0 0 0-1.675-.417A3.926 3.926 0 0 0 0 8.377a4.894 4.894 0 0 0 2.151 3.645 19.894 19.894 0 0 0 4.07 2.458 42.028 42.028 0 0 0 3.538 1.468 31.837 31.837 0 0 0 2.526 3.039h4.468a31.837 31.837 0 0 0 2.526-3.039 41.89 41.89 0 0 0 3.538-1.468 19.9 19.9 0 0 0 4.071-2.458 4.894 4.894 0 0 0 2.151-3.645 3.926 3.926 0 0 0-3.909-3.909 3.625 3.625 0 0 0-1.675.417V2.234a1.117 1.117 0 1 0 0-2.234zM3.909 6.7c.8 0 1.487.7 2.029 1.664l.024.048a18.436 18.436 0 0 0 1.693 4.258c-.16-.073-.313-.131-.473-.207A18.258 18.258 0 0 1 3.573 10.3a3.083 3.083 0 0 1-1.339-1.922A1.658 1.658 0 0 1 3.909 6.7zm21.221 0a1.658 1.658 0 0 1 1.675 1.675 3.083 3.083 0 0 1-1.339 1.925 18.258 18.258 0 0 1-3.608 2.166c-.161.076-.313.134-.473.207a18.436 18.436 0 0 0 1.693-4.258l.024-.048C23.643 7.4 24.329 6.7 25.13 6.7zM11.169 21.221a2.233 2.233 0 0 0-2.234 2.234v1.117a1.117 1.117 0 1 0 0 2.234H20.1a1.117 1.117 0 1 0 0-2.234v-1.117a2.233 2.233 0 0 0-2.234-2.234z"/>
</svg>
