<svg xmlns="http://www.w3.org/2000/svg" width="35.188" height="24.254" viewBox="0 0 35.188 24.254">
    <path d="M6.155 8.457a.711.711 0 0 0-.521.229 17.594 17.594 0 0 0 0 23.8.731.731 0 0 0 1.051.011l1.561-1.561a.74.74 0 0 0 .013-1.022 13.9 13.9 0 0 1 0-18.654.74.74 0 0 0-.013-1.022L6.684 8.675a.742.742 0 0 0-.529-.218zm24.879 0a.742.742 0 0 0-.53.218l-1.562 1.562a.738.738 0 0 0-.013 1.021 13.9 13.9 0 0 1 0 18.654.74.74 0 0 0 .013 1.022l1.558 1.56a.731.731 0 0 0 1.051-.011 17.594 17.594 0 0 0 0-23.8.71.71 0 0 0-.517-.226zm-4.651 4.678a.728.728 0 0 0-.553.213l-1.562 1.562a.723.723 0 0 0-.053.972 7.319 7.319 0 0 1 0 9.4.723.723 0 0 0 .053.972l1.562 1.564a.742.742 0 0 0 1.087-.049 11 11 0 0 0 0-14.375.755.755 0 0 0-.534-.259zm-15.578 0a.755.755 0 0 0-.534.262 11 11 0 0 0 0 14.374.742.742 0 0 0 1.087.049l1.562-1.562a.723.723 0 0 0 .053-.972 7.319 7.319 0 0 1 0-9.4.723.723 0 0 0-.053-.972l-1.562-1.564a.726.726 0 0 0-.553-.214zm7.789 3.05a4.4 4.4 0 1 0 4.4 4.4 4.4 4.4 0 0 0-4.4-4.399z" transform="translate(-1 -8.457)" style="fill:#080f18"/>
</svg>
