<svg xmlns="http://www.w3.org/2000/svg" width="27.481" height="26.336" viewBox="0 0 27.481 26.336">
    <path d="M10.306 0C4.623 0 0 4.11 0 9.16a8.572 8.572 0 0 0 2.932 6.391 6.185 6.185 0 0 1-2.618 2.873.573.573 0 0 0-.157.879 3 3 0 0 0 2.32.736c3.573 0 5.326-1.4 5.829-1.9a11.462 11.462 0 0 0 2 .18c5.682 0 10.306-4.11 10.306-9.16S15.988 0 10.306 0zM5.725 6.87h9.16a.573.573 0 0 1 0 1.145h-9.16a.573.573 0 0 1 0-1.145zm15.812.3a9.312 9.312 0 0 1 .219 1.99c0 5.682-5.137 10.306-11.451 10.306a12.4 12.4 0 0 1-1.659-.113 7.324 7.324 0 0 1-.571.391 10.541 10.541 0 0 0 9.1 4.874 11.479 11.479 0 0 0 2-.18c.561.543 2.315 1.9 5.828 1.9a3 3 0 0 0 2.319-.735.574.574 0 0 0-.155-.879 6.171 6.171 0 0 1-2.619-2.873 8.574 8.574 0 0 0 2.933-6.392 9.167 9.167 0 0 0-5.944-8.289zM5.725 10.306h5.153a.573.573 0 0 1 0 1.145H5.725a.573.573 0 0 1 0-1.145zm7.443 0h1.718a.573.573 0 0 1 0 1.145h-1.718a.573.573 0 0 1 0-1.145z"/>
</svg>
