<svg xmlns="http://www.w3.org/2000/svg" width="24.07" height="24.832" viewBox="0 0 24.07 24.832">
    <path d="M8.307 25.458a40.63 40.63 0 0 0 7.243-.746 4.059 4.059 0 0 1-7.267.746zm18.682-8.488c.27 1.392-.706 2.623-2.9 3.661a35.751 35.751 0 0 1-8.3 2.509 39.7 39.7 0 0 1-7.479.814c-.467 0-.853-.013-1.158-.031-2.425-.139-3.792-.916-4.062-2.307-.41-2.108.239-2.922 1.314-4.27l.283-.356c.725-.92 1.009-1.824.545-4.208-1.04-5.339 1.368-8.988 6.594-10.01s8.829 1.469 9.868 6.81c.463 2.384 1.065 3.115 2.082 3.7l.4.224c1.497.844 2.403 1.355 2.813 3.464z" transform="translate(-2.963 -2.551)" style="fill:#050505"/>
</svg>
