<svg xmlns="http://www.w3.org/2000/svg" width="35.286" height="26" viewBox="0 0 35.286 26">
    <path d="M10.071 20.857h.371A.681.681 0 0 1 11 21.971a10.606 10.606 0 0 0-1.857 5.757V29.4a.68.68 0 0 1-.743.743h-.929A3.1 3.1 0 0 1 4.5 26.986c0-3.343 2.229-6.129 5.571-6.129zm24.143 0c3.343 0 5.571 2.786 5.571 6.129a3.1 3.1 0 0 1-2.971 3.157h-.929a.8.8 0 0 1-.743-.743v-1.671a10.131 10.131 0 0 0-1.857-5.757.681.681 0 0 1 .557-1.114zM11.371 19a3.937 3.937 0 0 1-3.714-4.086c0-2.6 1.486-4.086 3.714-4.086s3.714 1.671 3.714 4.086A3.818 3.818 0 0 1 11.371 19zm21.543 0a3.937 3.937 0 0 1-3.714-4.086c0-2.6 1.486-4.086 3.714-4.086s3.714 1.671 3.714 4.086A3.937 3.937 0 0 1 32.914 19zm-8.543.929a7.888 7.888 0 0 1 7.986 7.8v.929A3.329 3.329 0 0 1 29.014 32H15.271a3.329 3.329 0 0 1-3.343-3.343v-.929a7.888 7.888 0 0 1 7.986-7.8h4.457zm2.971-8.357a5.284 5.284 0 0 1-5.2 5.571 5.4 5.4 0 0 1-5.2-5.571c0-3.343 2.043-5.571 5.2-5.571s5.201 2.228 5.201 5.57z" transform="translate(-4.5 -6)" style="fill:#080f18"/>
</svg>
