<svg xmlns="http://www.w3.org/2000/svg" width="28.96" height="28.96" viewBox="0 0 28.96 28.96">
    <path data-name="Path 14128" d="M31.728 15.258H30.6V15.2H18v5.6h7.912a8.406 8.406 0 1 1-2.339-9.073l3.96-3.96A13.986 13.986 0 1 0 32 18a14.1 14.1 0 0 0-.272-2.742z" transform="rotate(2 116.695 -84.3)" style="fill:#fbc02d"/>
    <path data-name="Path 14129" d="m6.306 11.484 4.6 3.373a8.383 8.383 0 0 1 13.359-3.13l3.96-3.96a13.973 13.973 0 0 0-21.919 3.717z" transform="rotate(2 117.041 -104.058)" style="fill:#e53935"/>
    <path data-name="Path 14130" d="M18.659 39.216a13.934 13.934 0 0 0 9.386-3.634l-4.333-3.667a8.378 8.378 0 0 1-12.952-3.861l-4.565 3.517a13.989 13.989 0 0 0 12.464 7.645z" transform="rotate(2 323.053 -99.48)" style="fill:#4caf50"/>
    <path data-name="Path 14131" d="M37.728 20.058 37.716 20H24v5.6h7.912a8.428 8.428 0 0 1-2.861 3.9l4.333 3.667A13.543 13.543 0 0 0 38 22.8a14.1 14.1 0 0 0-.272-2.742z" transform="rotate(2 256.743 -253.21)" style="fill:#1565c0"/>
</svg>
