<svg xmlns="http://www.w3.org/2000/svg" width="28" height="28" viewBox="0 0 28 28">
    <path data-name="Path 14132" d="M34 30.111A3.888 3.888 0 0 1 30.111 34H9.889A3.889 3.889 0 0 1 6 30.111V9.889A3.889 3.889 0 0 1 9.889 6h20.222A3.888 3.888 0 0 1 34 9.889z" transform="translate(-6 -6)" style="fill:#0288d1"/>
    <path data-name="Path 14133" d="M12 17.444h3.889v13.223H12zm1.933-1.556h-.022A1.861 1.861 0 0 1 12 13.944 1.871 1.871 0 0 1 13.955 12a1.865 1.865 0 0 1 1.934 1.944 1.872 1.872 0 0 1-1.956 1.945zm16.734 14.779h-3.889V23.59c0-1.71-.953-2.876-2.483-2.876a2.23 2.23 0 0 0-2.105 1.548 5.61 5.61 0 0 0-.079 1.405v7h-3.889V17.444h3.889v2.035a3.934 3.934 0 0 1 3.689-2.035c2.783 0 4.87 1.75 4.87 5.658v7.565z" transform="translate(-7.333 -7.333)" style="fill:#fff"/>
</svg>
